# xmcd CD database file
#
# Track frame offsets:
#	150
#	20120
#	38206
#	57766
#	84409
#	103196
#	122136
#	136266
#	166632
#	191143
#	208660
#
# Disc length: 3046 seconds
#
# Revision: 0
# Processed by: cddbd v1.5.2PL0 Copyright (c) Steve Scherf et al.
# Submitted via: CDex 1.50
#
DISCID=950be40b
DTITLE=Sieverts Henning and Enders Johannes and Salfellner Christian - Brooklyn Blue
DYEAR=1996
DGENRE=Jazz
TTITLE0=Brooklyn Blue
TTITLE1=The Treeman
TTITLE2=Mars Mellows
TTITLE3=Tirana
TTITLE4=New Folks
TTITLE5=Blues Dilemma
TTITLE6=Chick on the Water
TTITLE7=Star Eyes
TTITLE8=Panta Rhei
TTITLE9=Royal Garden Blues
TTITLE10=Body and Soul
EXTD=YEAR: 1996
EXTT0=
EXTT1=
EXTT2=
EXTT3=
EXTT4=
EXTT5=
EXTT6=
EXTT7=
EXTT8=
EXTT9=
EXTT10=
PLAYORDER=
